<svg width="1024" height="1024" xmlns="http://www.w3.org/2000/svg"><g fill="none" fill-rule="evenodd"><path d="M720 496L205 920 45 304l181 366 302-366-64-64 409-89-89 409-64-64z" fill="#B71C1C"/><path d="M524 524l-72 72-24-24 72-72-50.5-50.5L464 432l32 32 224-224 89-25-25 89-224 224 32 32-17.5 14.5L524 524z" fill="#FFF"/><path d="M401.941 576.941l56.569-11.314-11.314 56.569-56.569 11.314 11.314-56.569z" fill="#FFF"/><path d="M740 260l24 24-208 208-24-24 208-208zm33-9l-9 33-24-24 33-9z" fill="#B71C1C"/></g></svg>