<svg version="1" xmlns="http://www.w3.org/2000/svg" width="933.333" height="933.333" viewBox="0 0 700.000000 700.000000"><path d="M457 133.1c-75.6 16.5-138.2 30.2-138.9 30.5-1 .3 5.8 7.8 20.4 22.4l21.9 21.9-4 4.8c-2.2 2.6-48.5 58.8-102.9 124.7l-98.9 119.9-37.8-76.4C43.1 231.8 31.5 208.5 31.2 209.2c-.4.8 107.9 418.1 108.7 419.1.4.4 77.6-62.6 171.7-140 94-77.5 173.1-142.6 175.7-144.7l4.8-3.9 21.9 21.8c14.6 14.6 22.1 21.4 22.4 20.4.5-1.5 60.6-277.4 60.6-278.4 0-.3-.6-.5-1.2-.4-.7 0-63.2 13.5-138.8 30zm95 15.6c0 .3-3.7 13.7-8.1 29.7l-8.2 29.1-76.6 76.7-76.6 76.8 10.8 10.8 10.8 10.9-5.6 4.8-5.7 4.8-17.4-17.4-17.4-17.4-23.6 23.5c-12.9 12.9-24.1 24.6-24.8 26-.8 1.4-1.9 5.8-2.6 9.8-.9 4.7-1.9 7.6-2.9 8.1-2.4 1.2-35.1 7.5-35.7 6.8-.7-.7 6.3-35.9 7.4-36.8.4-.3 4.5-1.4 9.2-2.3l8.5-1.6 24.5-24.5 24.5-24.5-17.4-17.4-17.4-17.4 4.8-5.7 4.8-5.6 10.9 10.8 10.8 10.8 76.5-76.5 76.5-76.5 28.7-8.1c29.5-8.4 31.3-8.9 31.3-7.7z"/><path d="M516.9 174.2l-10.6 3-71.4 71.4-71.4 71.4 8.3 8.2 8.2 8.3 71.4-71.4 71.4-71.4 2.7-10c1.4-5.4 2.9-10.6 3.2-11.3.6-1.7 1-1.8-11.8 1.8z"/></svg>